<svg width="187" height="31" viewBox="0 0 187 31" fill="none" xmlns="http://www.w3.org/2000/svg">
<path d="M1.64347 25V6.09091H5.64134V14.4283H5.89062L12.6953 6.09091H17.4872L10.4702 14.5575L17.5703 25H12.7876L7.60796 17.2259L5.64134 19.6264V25H1.64347ZM27.7012 18.9616V10.8182H31.6344V25H27.8581V22.424H27.7104C27.3903 23.255 26.8579 23.9228 26.1131 24.4276C25.3745 24.9323 24.4727 25.1847 23.4078 25.1847C22.4599 25.1847 21.6259 24.9692 20.9057 24.5384C20.1855 24.1075 19.6223 23.495 19.2161 22.701C18.816 21.907 18.6129 20.956 18.6067 19.848V10.8182H22.54V19.1463C22.5461 19.9834 22.7708 20.6451 23.214 21.1314C23.6571 21.6177 24.2511 21.8608 24.9959 21.8608C25.4699 21.8608 25.9131 21.7531 26.3255 21.5376C26.7379 21.3161 27.0703 20.9898 27.3226 20.5589C27.5811 20.1281 27.7073 19.5956 27.7012 18.9616ZM34.7805 25V10.8182H38.5938V13.2926H38.7415C39 12.4124 39.4339 11.7476 40.0433 11.2983C40.6527 10.8428 41.3544 10.6151 42.1484 10.6151C42.3454 10.6151 42.5578 10.6274 42.7855 10.652C43.0133 10.6766 43.2133 10.7105 43.3857 10.7536V14.2436C43.201 14.1882 42.9455 14.139 42.6193 14.0959C42.2931 14.0528 41.9946 14.0312 41.7237 14.0312C41.1451 14.0312 40.6281 14.1574 40.1726 14.4098C39.7232 14.656 39.3662 15.0007 39.1016 15.4439C38.843 15.8871 38.7138 16.398 38.7138 16.9766V25H34.7805ZM57.2189 14.8622L53.6181 15.0838C53.5565 14.776 53.4242 14.4991 53.2211 14.2528C53.0179 14.0005 52.7502 13.8004 52.4178 13.6527C52.0916 13.4988 51.7007 13.4219 51.2452 13.4219C50.6358 13.4219 50.1219 13.5511 49.7033 13.8097C49.2847 14.062 49.0755 14.4006 49.0755 14.8253C49.0755 15.1638 49.2109 15.45 49.4817 15.6839C49.7525 15.9179 50.2173 16.1056 50.8759 16.2472L53.4426 16.7642C54.8214 17.0473 55.8494 17.5028 56.5265 18.1307C57.2035 18.7585 57.5421 19.5833 57.5421 20.6051C57.5421 21.5346 57.2682 22.3501 56.7203 23.0518C56.1787 23.7536 55.4339 24.3014 54.486 24.6953C53.5442 25.0831 52.4578 25.277 51.2267 25.277C49.3494 25.277 47.8536 24.8861 46.7395 24.1044C45.6316 23.3165 44.9822 22.2455 44.7914 20.8913L48.66 20.6882C48.7769 21.2607 49.0601 21.6977 49.5094 21.9993C49.9587 22.2947 50.5343 22.4425 51.236 22.4425C51.9254 22.4425 52.4793 22.3101 52.8979 22.0455C53.3226 21.7746 53.5381 21.4268 53.5442 21.0021C53.5381 20.6451 53.3873 20.3527 53.0918 20.125C52.7963 19.8911 52.3409 19.7126 51.7253 19.5895L49.2694 19.1001C47.8844 18.8232 46.8534 18.343 46.1763 17.6598C45.5054 16.9766 45.1699 16.1056 45.1699 15.0469C45.1699 14.1359 45.4161 13.3511 45.9086 12.6925C46.4071 12.0339 47.1058 11.526 48.0044 11.169C48.9093 10.812 49.968 10.6335 51.1806 10.6335C52.9718 10.6335 54.3813 11.0121 55.4093 11.7692C56.4434 12.5263 57.0466 13.5573 57.2189 14.8622Z" fill="white"/>
<path d="M60.6435 6.09091H65.5739L70.7812 18.7955H71.0028L76.2102 6.09091H81.1406V25H77.2628V12.6925H77.1058L72.2124 24.9077H69.5717L64.6783 12.6463H64.5213V25H60.6435V6.09091ZM90.8237 25.277C89.3649 25.277 88.1092 24.9815 87.0566 24.3906C86.0102 23.7936 85.2039 22.9503 84.6376 21.8608C84.0713 20.7652 83.7882 19.4695 83.7882 17.9737C83.7882 16.5149 84.0713 15.2346 84.6376 14.1328C85.2039 13.031 86.001 12.1723 87.0289 11.5568C88.063 10.9413 89.2756 10.6335 90.6667 10.6335C91.6023 10.6335 92.4733 10.7843 93.2797 11.0859C94.0922 11.3814 94.8 11.8277 95.4032 12.4247C96.0126 13.0218 96.4866 13.7727 96.8251 14.6776C97.1636 15.5762 97.3329 16.6288 97.3329 17.8352V18.9155H85.3578V16.478H93.6305C93.6305 15.9117 93.5074 15.41 93.2612 14.973C93.015 14.536 92.6734 14.1944 92.2363 13.9482C91.8055 13.6958 91.3038 13.5696 90.7314 13.5696C90.1343 13.5696 89.6049 13.7081 89.1433 13.9851C88.6878 14.2559 88.3308 14.6222 88.0723 15.0838C87.8137 15.5393 87.6814 16.0471 87.6752 16.6072V18.9247C87.6752 19.6264 87.8045 20.2327 88.063 20.7436C88.3277 21.2545 88.7001 21.6484 89.1802 21.9254C89.6603 22.2024 90.2297 22.3409 90.8883 22.3409C91.3253 22.3409 91.7254 22.2794 92.0886 22.1562C92.4518 22.0331 92.7626 21.8485 93.0211 21.6023C93.2797 21.3561 93.4766 21.0545 93.612 20.6974L97.2498 20.9375C97.0652 21.8116 96.6866 22.5748 96.1142 23.2273C95.5479 23.8736 94.8154 24.3783 93.9167 24.7415C93.0242 25.0985 91.9932 25.277 90.8237 25.277ZM103.833 16.8011V25H99.8997V10.8182H103.648V13.3203H103.814C104.128 12.4955 104.655 11.843 105.393 11.3629C106.132 10.8767 107.028 10.6335 108.08 10.6335C109.065 10.6335 109.924 10.849 110.656 11.2798C111.389 11.7107 111.958 12.3262 112.364 13.1264C112.77 13.9205 112.974 14.8684 112.974 15.9702V25H109.04V16.6719C109.046 15.804 108.825 15.1269 108.376 14.6406C107.926 14.1482 107.308 13.902 106.52 13.902C105.99 13.902 105.523 14.0159 105.116 14.2436C104.716 14.4714 104.402 14.8037 104.175 15.2408C103.953 15.6716 103.839 16.1918 103.833 16.8011ZM120.118 25.2678C119.213 25.2678 118.406 25.1108 117.699 24.7969C116.991 24.4768 116.431 24.0059 116.018 23.3842C115.612 22.7564 115.409 21.9747 115.409 21.0391C115.409 20.2512 115.553 19.5895 115.843 19.054C116.132 18.5185 116.526 18.0876 117.025 17.7614C117.523 17.4351 118.089 17.1889 118.723 17.0227C119.364 16.8565 120.034 16.7396 120.736 16.6719C121.561 16.5857 122.226 16.5057 122.73 16.4318C123.235 16.3518 123.601 16.2348 123.829 16.081C124.057 15.9271 124.171 15.6993 124.171 15.3977V15.3423C124.171 14.7576 123.986 14.3052 123.617 13.9851C123.254 13.665 122.737 13.505 122.066 13.505C121.358 13.505 120.795 13.6619 120.376 13.9759C119.958 14.2836 119.681 14.6714 119.545 15.1392L115.907 14.8438C116.092 13.982 116.455 13.2372 116.997 12.6094C117.538 11.9754 118.237 11.4891 119.093 11.1506C119.954 10.8059 120.952 10.6335 122.084 10.6335C122.872 10.6335 123.626 10.7259 124.346 10.9105C125.073 11.0952 125.716 11.3814 126.276 11.7692C126.842 12.157 127.288 12.6555 127.615 13.2649C127.941 13.8681 128.104 14.5914 128.104 15.4347V25H124.374V23.0334H124.263C124.035 23.4766 123.731 23.8674 123.349 24.206C122.967 24.5384 122.509 24.8 121.973 24.9908C121.438 25.1754 120.819 25.2678 120.118 25.2678ZM121.244 22.5533C121.823 22.5533 122.333 22.4394 122.777 22.2116C123.22 21.9777 123.568 21.6638 123.82 21.2699C124.072 20.8759 124.199 20.4297 124.199 19.9311V18.4261C124.075 18.5062 123.906 18.58 123.691 18.6477C123.481 18.7093 123.244 18.7678 122.98 18.8232C122.715 18.8724 122.45 18.9186 122.186 18.9616C121.921 18.9986 121.681 19.0324 121.466 19.0632C121.004 19.1309 120.601 19.2386 120.256 19.3864C119.911 19.5341 119.644 19.7341 119.453 19.9865C119.262 20.2327 119.167 20.5405 119.167 20.9098C119.167 21.4453 119.36 21.8546 119.748 22.1378C120.142 22.4148 120.641 22.5533 121.244 22.5533ZM136.381 25.2308C135.304 25.2308 134.329 24.9538 133.455 24.3999C132.587 23.8397 131.897 23.018 131.386 21.9347C130.882 20.8452 130.629 19.5095 130.629 17.9276C130.629 16.3026 130.891 14.9515 131.414 13.8743C131.937 12.791 132.633 11.9815 133.501 11.446C134.375 10.9044 135.332 10.6335 136.372 10.6335C137.166 10.6335 137.828 10.7689 138.357 11.0398C138.893 11.3045 139.324 11.6368 139.65 12.0369C139.982 12.4309 140.235 12.8187 140.407 13.2003H140.527V6.09091H144.451V25H140.573V22.7287H140.407C140.222 23.1226 139.961 23.5135 139.622 23.9013C139.29 24.2829 138.856 24.5999 138.32 24.8523C137.791 25.1046 137.145 25.2308 136.381 25.2308ZM137.628 22.1009C138.262 22.1009 138.797 21.9285 139.234 21.5838C139.678 21.233 140.016 20.7436 140.25 20.1158C140.49 19.4879 140.61 18.7524 140.61 17.9091C140.61 17.0658 140.493 16.3333 140.259 15.7116C140.025 15.09 139.687 14.6098 139.244 14.2713C138.8 13.9328 138.262 13.7635 137.628 13.7635C136.982 13.7635 136.437 13.9389 135.994 14.2898C135.55 14.6406 135.215 15.1269 134.987 15.7486C134.759 16.3703 134.646 17.0904 134.646 17.9091C134.646 18.7339 134.759 19.4633 134.987 20.0973C135.221 20.7251 135.557 21.2176 135.994 21.5746C136.437 21.9254 136.982 22.1009 137.628 22.1009ZM147.611 25V22.6548L154.554 14.0589V13.9574H147.851V10.8182H159.291V13.3757L152.772 21.7592V21.8608H159.531V25H147.611ZM168.595 25.277C167.136 25.277 165.881 24.9815 164.828 24.3906C163.782 23.7936 162.975 22.9503 162.409 21.8608C161.843 20.7652 161.56 19.4695 161.56 17.9737C161.56 16.5149 161.843 15.2346 162.409 14.1328C162.975 13.031 163.772 12.1723 164.8 11.5568C165.835 10.9413 167.047 10.6335 168.438 10.6335C169.374 10.6335 170.245 10.7843 171.051 11.0859C171.864 11.3814 172.571 11.8277 173.175 12.4247C173.784 13.0218 174.258 13.7727 174.597 14.6776C174.935 15.5762 175.104 16.6288 175.104 17.8352V18.9155H163.129V16.478H171.402C171.402 15.9117 171.279 15.41 171.033 14.973C170.786 14.536 170.445 14.1944 170.008 13.9482C169.577 13.6958 169.075 13.5696 168.503 13.5696C167.906 13.5696 167.376 13.7081 166.915 13.9851C166.459 14.2559 166.102 14.6222 165.844 15.0838C165.585 15.5393 165.453 16.0471 165.447 16.6072V18.9247C165.447 19.6264 165.576 20.2327 165.835 20.7436C166.099 21.2545 166.472 21.6484 166.952 21.9254C167.432 22.2024 168.001 22.3409 168.66 22.3409C169.097 22.3409 169.497 22.2794 169.86 22.1562C170.223 22.0331 170.534 21.8485 170.793 21.6023C171.051 21.3561 171.248 21.0545 171.384 20.6974L175.021 20.9375C174.837 21.8116 174.458 22.5748 173.886 23.2273C173.319 23.8736 172.587 24.3783 171.688 24.7415C170.796 25.0985 169.765 25.277 168.595 25.277ZM177.671 25V10.8182H181.484V13.2926H181.632C181.891 12.4124 182.325 11.7476 182.934 11.2983C183.543 10.8428 184.245 10.6151 185.039 10.6151C185.236 10.6151 185.448 10.6274 185.676 10.652C185.904 10.6766 186.104 10.7105 186.276 10.7536V14.2436C186.092 14.1882 185.836 14.139 185.51 14.0959C185.184 14.0528 184.885 14.0312 184.614 14.0312C184.036 14.0312 183.519 14.1574 183.063 14.4098C182.614 14.656 182.257 15.0007 181.992 15.4439C181.734 15.8871 181.604 16.398 181.604 16.9766V25H177.671Z" fill="black"/>
</svg>
